<?xml version="1.0" encoding="utf-8"?><svg viewBox="0 0 32 32" xmlns="http://www.w3.org/2000/svg" xmlns:xlink="http://www.w3.org/1999/xlink"><style>:root>svg{display:none}:root>svg:target{display:block}</style><svg viewBox="0 0 24 32" id="arrow" xmlns="http://www.w3.org/2000/svg"><path d="M13.06.94a1.5 1.5 0 00-2.12 0l-9.547 9.545a1.5 1.5 0 102.122 2.122L12 4.12l8.485 8.486a1.5 1.5 0 102.122-2.122L13.06.94zM10.5 30a1.5 1.5 0 003 0h-3zm0-28v28h3V2h-3z"/></svg><svg fill="none" viewBox="0 0 12 11" id="close" xmlns="http://www.w3.org/2000/svg"><path d="M1 .5l10 9.9M1 10.5L11 .6" stroke="#17242B"/></svg><svg fill="none" viewBox="0 0 24 11" id="menu" xmlns="http://www.w3.org/2000/svg"><path d="M0 1.5h24M0 5.5h24M0 9.5h24" stroke="#17242B"/></svg><svg fill="none" viewBox="0 0 32 32" id="search" xmlns="http://www.w3.org/2000/svg"><path d="M30 30l-6.767-6.767m3.656-8.789c0 6.873-5.572 12.445-12.445 12.445C7.572 26.889 2 21.317 2 14.444 2 7.572 7.572 2 14.444 2 21.317 2 26.89 7.572 26.89 14.444z"/></svg></svg>