<?xml version="1.0" encoding="utf-8"?><svg viewBox="0 0 32 32" xmlns="http://www.w3.org/2000/svg" xmlns:xlink="http://www.w3.org/1999/xlink"><style>:root>svg{display:none}:root>svg:target{display:block}</style><svg viewBox="0 0 26 24" id="add" xmlns="http://www.w3.org/2000/svg"><path d="M1 4.889a1 1 0 100 2v-2zm24 2a1 1 0 100-2v2zM9.4 13.444a1 1 0 000 2v-2zm7.2 2a1 1 0 100-2v2zM14 10.778a1 1 0 10-2 0h2zm-2 7.333a1 1 0 102 0h-2zM2 20.556V3.444H0v17.112h2zM2 3.444C2 2.63 2.644 2 3.4 2V0C1.505 0 0 1.56 0 3.444h2zM3.4 2h19.2V0H3.4v2zm19.2 0c.756 0 1.4.63 1.4 1.444h2C26 1.56 24.495 0 22.6 0v2zM24 3.444v17.112h2V3.444h-2zm0 17.112C24 21.37 23.356 22 22.6 22v2c1.895 0 3.4-1.56 3.4-3.444h-2zM22.6 22H3.4v2h19.2v-2zM3.4 22c-.756 0-1.4-.63-1.4-1.444H0C0 22.44 1.505 24 3.4 24v-2zM1 6.889h24v-2H1v2zm8.4 8.555H13v-2H9.4v2zm7.2-2H13v2h3.6v-2zm-2.6 1v-3.666h-2v3.666h2zm-2 0v3.667h2v-3.667h-2z"/></svg><svg viewBox="0 0 24 32" id="arrow" xmlns="http://www.w3.org/2000/svg"><path d="M13.06.94a1.5 1.5 0 00-2.12 0l-9.547 9.545a1.5 1.5 0 102.122 2.122L12 4.12l8.485 8.486a1.5 1.5 0 102.122-2.122L13.06.94zM10.5 30a1.5 1.5 0 003 0h-3zm0-28v28h3V2h-3z"/></svg><svg fill="none" viewBox="0 0 14 8" id="arrow1" xmlns="http://www.w3.org/2000/svg"><path d="M1 1l6 6 6-6"/></svg><svg viewBox="0 0 32 32" id="arrow2" xmlns="http://www.w3.org/2000/svg"><circle cx="16" cy="16" r="16" fill="#4CBE57"/><path fill-rule="evenodd" clip-rule="evenodd" d="M22.81 14.971s-5.488-5.96-5.993-6.621c-.567-.662-1.45-.18-1.45-.18s-5.553 5.838-6.184 6.861c-.63.963.568 1.144.568 1.144h3.029v7.223c0 .361.252.602.63.602h5.048c.378 0 .63-.24.63-.602v-7.223h2.966c1.514 0 .757-1.204.757-1.204z"/></svg><svg fill="none" viewBox="0 0 26 26" id="availaible" xmlns="http://www.w3.org/2000/svg"><path d="M19.74 5.935c2.73-.673 4.688-.595 5.155.39.869 1.833-3.753 6.111-10.322 9.557-6.57 3.445-12.6 4.752-13.468 2.92-.466-.983.647-2.669 2.791-4.552M22.711 13c0 5.523-4.256 10-9.506 10-5.251 0-9.507-4.477-9.507-10S7.954 3 13.204 3c5.251 0 9.507 4.477 9.507 10z"/></svg><svg fill="none" viewBox="0 0 22 22" id="close" xmlns="http://www.w3.org/2000/svg"><path d="M2 20l9-9m0 0l9-9m-9 9L2 2m9 9l9 9"/></svg><svg fill="none" viewBox="0 0 18 18" id="copy" xmlns="http://www.w3.org/2000/svg"><path d="M3.4 11.4h-.8A1.6 1.6 0 011 9.8V2.6A1.6 1.6 0 012.6 1h7.2a1.6 1.6 0 011.6 1.6v.8M8.2 6.6h7.2A1.6 1.6 0 0117 8.2v7.2a1.6 1.6 0 01-1.6 1.6H8.2a1.6 1.6 0 01-1.6-1.6V8.2a1.6 1.6 0 011.6-1.6z" stroke="#000" stroke-width="2" stroke-linecap="round" stroke-linejoin="round"/></svg><svg fill="none" viewBox="0 0 18 18" id="delete" xmlns="http://www.w3.org/2000/svg"><path d="M15.222 8.111v8.356a.533.533 0 01-.533.533H3.31a.533.533 0 01-.533-.533V8.11m4.444 5.333V8.111m3.556 5.333V8.111M17 4.556h-4.444m0 0V1.533A.533.533 0 0012.022 1H5.978a.533.533 0 00-.534.533v3.023m7.112 0H5.444M1 4.556h4.444"/></svg><svg fill="none" viewBox="0 0 18 18" id="edit" xmlns="http://www.w3.org/2000/svg"><path d="M9.96 3.56L12.52 1 17 5.48l-2.56 2.56M9.96 3.56l-8.695 8.695c-.17.17-.265.4-.265.64V17h4.105c.24 0 .47-.095.64-.265L14.44 8.04M9.96 3.56l4.48 4.48"/></svg><svg viewBox="0 0 30 24" id="eye" xmlns="http://www.w3.org/2000/svg"><path d="M29.875 11.4C26.845 4.365 21.148 0 15 0S3.154 4.365.125 11.4a1.5 1.5 0 000 1.2C3.155 19.635 8.852 24 15 24s11.846-4.365 14.875-11.4a1.5 1.5 0 000-1.2zM15 21c-4.753 0-9.252-3.435-11.846-9C5.748 6.435 10.247 3 15 3s9.252 3.435 11.846 9c-2.594 5.565-7.093 9-11.846 9zm0-15a5.997 5.997 0 00-5.883 7.17 6 6 0 008.178 4.373A5.998 5.998 0 0020.998 12 6.001 6.001 0 0015 6zm0 9a2.998 2.998 0 01-2.941-3.585A3 3 0 1115 15z"/></svg><svg viewBox="0 0 30 32" id="eye2" xmlns="http://www.w3.org/2000/svg"><path d="M13.41 7.123a10.39 10.39 0 011.589-.12c4.767 0 9.25 3.434 11.859 8.996-.4.846-.85 1.667-1.35 2.458a1.5 1.5 0 00-.24.825 1.5 1.5 0 002.79.75 23.644 23.644 0 001.813-3.449 1.5 1.5 0 000-1.184C26.843 8.367 21.146 4.005 15 4.005a11.649 11.649 0 00-2.1.18 1.521 1.521 0 00.51 2.998v-.06zM2.57 1.441A1.505 1.505 0 00.44 3.57L5.09 8.203a21.92 21.92 0 00-4.963 7.196 1.5 1.5 0 000 1.2C3.155 23.628 8.852 27.992 15 27.992a13.884 13.884 0 007.571-2.31l4.858 4.873a1.5 1.5 0 002.128 0 1.5 1.5 0 000-2.128L2.57 1.44zm9.535 13.778l3.673 3.673a2.999 2.999 0 01-3.673-3.673zM15 24.994c-4.768 0-9.25-3.433-11.844-8.995a18.127 18.127 0 014.048-5.683L9.856 13a5.997 5.997 0 008.141 8.141l2.384 2.354a10.855 10.855 0 01-5.382 1.5z"/></svg><svg fill="none" viewBox="0 0 22 19" id="graph" xmlns="http://www.w3.org/2000/svg"><path d="M1 9.34h4.127L8.302 1l5.714 17 2.857-8.66H21"/></svg><svg viewBox="0 0 24 18" id="mail" xmlns="http://www.w3.org/2000/svg"><path d="M6.853 5.086a.6.6 0 10-.706.97l.706-.97zM12 9.571l-.353.486a.6.6 0 00.706 0L12 9.57zm5.853-3.514a.6.6 0 00-.706-.97l.706.97zm-11.706 0l5.5 4 .706-.97-5.5-4-.706.97zm6.206 4l5.5-4-.706-.97-5.5 4 .706.97zM1.6 14.714V3.286H.4v11.428h1.2zm0-11.428c0-.953.738-1.686 1.6-1.686V.4C1.632.4.4 1.714.4 3.286h1.2zM3.2 1.6h17.6V.4H3.2v1.2zm17.6 0c.862 0 1.6.733 1.6 1.686h1.2C23.6 1.714 22.368.4 20.8.4v1.2zm1.6 1.686v11.428h1.2V3.286h-1.2zm0 11.428c0 .953-.738 1.686-1.6 1.686v1.2c1.568 0 2.8-1.314 2.8-2.886h-1.2zM20.8 16.4H3.2v1.2h17.6v-1.2zm-17.6 0c-.862 0-1.6-.733-1.6-1.686H.4c0 1.572 1.232 2.886 2.8 2.886v-1.2z"/></svg><svg fill="none" viewBox="0 0 24 11" id="menu" xmlns="http://www.w3.org/2000/svg"><path d="M0 1.5h24M0 5.5h24M0 9.5h24" stroke="#17242B"/></svg><svg viewBox="0 0 22 22" id="monitors" xmlns="http://www.w3.org/2000/svg"><path d="M7.143 15.136v1.91c0 .265-.094.49-.281.676a.935.935 0 01-.683.278H2.964a.935.935 0 01-.683-.278.916.916 0 01-.281-.677v-1.909c0-.265.094-.49.281-.676a.935.935 0 01.683-.278H6.18c.267 0 .495.093.683.278a.916.916 0 01.28.676zm0-5.09v1.909c0 .265-.094.49-.281.676a.935.935 0 01-.683.278H2.964a.935.935 0 01-.683-.278.916.916 0 01-.281-.677v-1.909c0-.265.094-.49.281-.676a.935.935 0 01.683-.278H6.18c.267 0 .495.093.683.278a.916.916 0 01.28.677zM20 15.136v1.91c0 .265-.094.49-.281.676a.935.935 0 01-.683.278H9.393a.935.935 0 01-.683-.278.916.916 0 01-.281-.677v-1.909c0-.265.093-.49.28-.676a.935.935 0 01.684-.278h9.643c.268 0 .495.093.683.278a.916.916 0 01.281.676zM7.143 4.955v1.909c0 .265-.094.49-.281.676a.935.935 0 01-.683.278H2.964a.935.935 0 01-.683-.278A.916.916 0 012 6.864v-1.91c0-.265.094-.49.281-.676A.935.935 0 012.964 4H6.18c.267 0 .495.093.683.278a.916.916 0 01.28.677zM20 10.045v1.91c0 .265-.094.49-.281.676a.935.935 0 01-.683.278H9.393a.935.935 0 01-.683-.278.916.916 0 01-.281-.677v-1.909c0-.265.093-.49.28-.676a.935.935 0 01.684-.278h9.643c.268 0 .495.093.683.278a.916.916 0 01.281.677zm0-5.09v1.909c0 .265-.094.49-.281.676a.935.935 0 01-.683.278H9.393a.935.935 0 01-.683-.278.916.916 0 01-.281-.676v-1.91c0-.265.093-.49.28-.676A.935.935 0 019.394 4h9.643c.268 0 .495.093.683.278a.916.916 0 01.281.677z"/></svg><svg viewBox="0 0 24 24" id="ns" xmlns="http://www.w3.org/2000/svg"><path d="M21.747 12a1 1 0 002 0h-2zm-9.873 12a1 1 0 100-2v2zM13.76.454a1 1 0 00-1.6 1.2l1.6-1.2zM15.223 12a1 1 0 102 0h-2zM9.986 23.546a1 1 0 101.6-1.2l-1.6 1.2zm1.6-21.891a1 1 0 00-1.6-1.201l1.6 1.2zM1.685 14.85a1 1 0 100 2v-2zm10.188 2a1 1 0 100-2v2zM1.685 7.15a1 1 0 100 2v-2zm20.377 2a1 1 0 100-2v2zm.553 9.36l-.528.848.528-.849zm-.049 1.21l.114.993-.114-.993zm-2.79.32l-.115-.994-.542.063-.24.49.896.44zm-1.252 2.543l-.898-.441.898.441zm-1.142-.367l-.98.199.98-.199zm-1.365-6.728l-.98.2.98-.2zm.816-.577l-.529.848.529-.848zM23.747 12c0-6.616-5.305-12-11.873-12v2c5.441 0 9.873 4.466 9.873 10h2zM11.874 0C5.304 0 0 5.384 0 12h2C2 6.466 6.431 2 11.873 2V0zM0 12c0 6.616 5.305 12 11.873 12v-2C6.431 22 2 17.534 2 12H0zM12.96 1.054l-.8.6c0-.001 0-.001 0 0l.004.004.02.028c.019.027.05.07.089.129.08.117.197.297.34.535.285.477.671 1.186 1.06 2.095A19.314 19.314 0 0115.222 12h2c0-3.465-.856-6.336-1.711-8.34a19.355 19.355 0 00-1.184-2.337 13.539 13.539 0 00-.551-.847l-.01-.014-.004-.005-.001-.002h-.001l-.8.6zm-2.174 21.892l.8-.6h.001c0 .001 0 .001 0 0l-.004-.004-.02-.028c-.019-.027-.05-.07-.089-.129-.08-.117-.197-.297-.34-.535a17.364 17.364 0 01-1.06-2.095A19.314 19.314 0 018.525 12h-2c0 3.465.856 6.336 1.711 8.34a19.36 19.36 0 001.184 2.337 13.509 13.509 0 00.551.847l.01.014.004.005.001.002c.001 0 .001.001.801-.6zM8.524 12c0-3.135.775-5.737 1.55-7.555a17.36 17.36 0 011.06-2.095 11.489 11.489 0 01.43-.664l.02-.028.003-.005v.001l-.8-.6-.801-.6v.001l-.002.002-.003.005a3.178 3.178 0 00-.045.061 13.525 13.525 0 00-.517.8A19.362 19.362 0 008.235 3.66 21.313 21.313 0 006.525 12h2zm-6.84 4.85h10.19v-2H1.684v2zm0-7.7h20.378v-2H1.685v2zm20.403 10.208c-.053-.033-.09-.095-.087-.183a.437.437 0 01.102-.25.542.542 0 01.35-.199l.228 1.987c.887-.101 1.294-.844 1.319-1.456a1.806 1.806 0 00-.855-1.597l-1.057 1.698zm.365-.632l-2.79.32.227 1.987 2.791-.32-.228-1.987zm-3.574.872l-1.252 2.544 1.795.883 1.252-2.543-1.795-.884zm-1.252 2.544a.538.538 0 01.303-.26.451.451 0 01.285-.01c.095.03.137.092.148.145l-1.96.398a1.8 1.8 0 001.199 1.36c.29.093.64.117.987-.004.364-.128.659-.392.833-.746l-1.795-.883zm.736-.125l-1.365-6.727-1.96.397 1.365 6.728 1.96-.398zm-1.365-6.727a.45.45 0 01-.204.422.464.464 0 01-.489.047l1.057-1.697c-.523-.326-1.194-.358-1.724.018-.528.373-.72 1.01-.6 1.607l1.96-.397zm-.692.47l5.782 3.598 1.057-1.698-5.783-3.598-1.056 1.698z"/></svg><svg viewBox="0 0 10 16" id="pause" xmlns="http://www.w3.org/2000/svg"><rect width="3" height="16" rx="1.5"/><rect x="7" width="3" height="16" rx="1.5"/></svg><svg viewBox="0 0 13 15" id="play" xmlns="http://www.w3.org/2000/svg"><path d="M12 6.928a1 1 0 010 1.732L1.5 14.722a1 1 0 01-1.5-.866V1.732A1 1 0 011.5.866L12 6.928z"/></svg><svg fill="none" viewBox="0 0 18 18" id="refresh" xmlns="http://www.w3.org/2000/svg"><path d="M5.168 6.427H1m0 0V2.064m0 4.363l2.953-3.082a7.543 7.543 0 013.912-2.19 7.324 7.324 0 014.416.453 7.729 7.729 0 013.43 2.947A8.269 8.269 0 0117 9c0 1.582-.448 3.13-1.288 4.445a7.73 7.73 0 01-3.43 2.947 7.325 7.325 0 01-4.417.454 7.542 7.542 0 01-3.913-2.191"/></svg><svg fill="none" viewBox="0 0 32 32" id="search" xmlns="http://www.w3.org/2000/svg"><path d="M30 30l-6.767-6.767m3.656-8.789c0 6.873-5.572 12.445-12.445 12.445C7.572 26.889 2 21.317 2 14.444 2 7.572 7.572 2 14.444 2 21.317 2 26.89 7.572 26.89 14.444z"/></svg><svg fill="none" viewBox="0 0 26 26" id="server" xmlns="http://www.w3.org/2000/svg"><path d="M7 19.01l.01-.011M7 7.01l.01-.011M3 10.4V3.6a.6.6 0 01.6-.6h18.8a.6.6 0 01.6.6v6.8a.6.6 0 01-.6.6H3.6a.6.6 0 01-.6-.6zm0 12v-6.8a.6.6 0 01.6-.6h18.8a.6.6 0 01.6.6v6.8a.6.6 0 01-.6.6H3.6a.6.6 0 01-.6-.6z"/></svg><svg viewBox="0 0 22 22" id="settings" xmlns="http://www.w3.org/2000/svg"><path d="M18.963 11.882l-.363-.207a1.339 1.339 0 01-.691-1.175c0-.49.258-.93.69-1.175l.364-.207a2.015 2.015 0 00.759-2.78l-.691-1.176c-.572-.972-1.842-1.306-2.831-.745l-.364.206c-.432.246-.95.246-1.381 0a1.34 1.34 0 01-.691-1.175v-.412c0-1.123-.93-2.036-2.073-2.036H10.31c-1.142 0-2.072.913-2.072 2.036v.412c0 .49-.258.93-.69 1.176a1.39 1.39 0 01-1.383 0l-.363-.207c-.99-.56-2.26-.227-2.832.745l-.69 1.176a2.015 2.015 0 00.758 2.78l.364.207c.432.245.69.684.69 1.175 0 .49-.258.93-.69 1.175l-.363.207a2.015 2.015 0 00-.759 2.78l.69 1.176c.573.972 1.843 1.306 2.832.745l.363-.206c.433-.246.95-.245 1.382 0 .433.246.691.685.691 1.175v.412c0 1.123.93 2.036 2.072 2.036h1.382c1.143 0 2.073-.913 2.073-2.036v-.412c0-.49.258-.93.69-1.176a1.39 1.39 0 011.382 0l.364.207c.989.56 2.26.226 2.83-.745l.692-1.176a2.015 2.015 0 00-.759-2.78zM11 13.892c-1.904 0-3.454-1.521-3.454-3.392 0-1.87 1.55-3.393 3.454-3.393 1.905 0 3.455 1.522 3.455 3.393 0 1.87-1.55 3.393-3.455 3.393z"/></svg><svg fill="none" viewBox="0 0 24 18" id="telegram" xmlns="http://www.w3.org/2000/svg"><path d="M22 1L1 9l7.737 1.067M22 1l-2.763 16-10.5-6.933M22 1L8.737 10.067m0 0v5.866l3.59-3.495"/></svg><svg fill="none" viewBox="0 0 30 24" id="user" xmlns="http://www.w3.org/2000/svg"><path d="M2.479 22s3.61-4.61 12.52-4.61S27.521 22 27.521 22M14.999 11.72A4.86 4.86 0 1015 2a4.86 4.86 0 000 9.72z"/></svg><svg fill="none" viewBox="0 0 26 26" id="whois" xmlns="http://www.w3.org/2000/svg"><path d="M21.778 13V6.123a.657.657 0 00-.195-.466l-3.499-3.464A.67.67 0 0017.613 2H4.667A.663.663 0 004 2.66v20.68c0 .364.298.66.667.66h7.11M8.444 10.8h8.89-8.89zm0-4.4h4.445-4.445zm0 8.8h3.334-3.334zM22.333 22.35L24 24l-1.667-1.65z" fill="#fff"/><path d="M16.222 19.6c0 1.823 1.493 3.3 3.334 3.3a3.34 3.34 0 002.36-.97c.601-.597.973-1.42.973-2.33 0-1.823-1.492-3.3-3.333-3.3-1.841 0-3.334 1.477-3.334 3.3zM17.333 5.74V2.389A.39.39 0 0117.726 2c.104 0 .204.041.278.114l3.659 3.622a.387.387 0 01-.278.664H18a.663.663 0 01-.667-.66z" fill="#fff"/><path d="M21.778 13V6.123a.657.657 0 00-.195-.466l-3.499-3.464A.67.67 0 0017.613 2H4.667A.663.663 0 004 2.66v20.68c0 .364.298.66.667.66h7.11M8.445 10.8h8.89m-8.89-4.4h4.445m-4.445 8.8h3.334m10.555 7.15L24 24m-7.778-4.4c0 1.823 1.493 3.3 3.334 3.3a3.34 3.34 0 002.36-.97c.601-.597.973-1.42.973-2.33 0-1.823-1.492-3.3-3.333-3.3-1.841 0-3.334 1.477-3.334 3.3zm1.111-13.86V2.389A.39.39 0 0117.726 2c.104 0 .204.041.278.114l3.659 3.622a.387.387 0 01-.278.664H18a.663.663 0 01-.667-.66z"/></svg></svg>