<?xml version="1.0" encoding="utf-8"?><svg viewBox="0 0 32 32" xmlns="http://www.w3.org/2000/svg" xmlns:xlink="http://www.w3.org/1999/xlink"><style>:root>svg{display:none}:root>svg:target{display:block}</style><svg viewBox="0 0 24 32" id="arrow" xmlns="http://www.w3.org/2000/svg"><path d="M13.06.94a1.5 1.5 0 00-2.12 0l-9.547 9.545a1.5 1.5 0 102.122 2.122L12 4.12l8.485 8.486a1.5 1.5 0 102.122-2.122L13.06.94zM10.5 30a1.5 1.5 0 003 0h-3zm0-28v28h3V2h-3z"/></svg><svg fill="none" viewBox="0 0 26 26" id="availaible" xmlns="http://www.w3.org/2000/svg"><path d="M19.74 5.935c2.73-.673 4.688-.595 5.155.39.869 1.833-3.753 6.111-10.322 9.557-6.57 3.445-12.6 4.752-13.468 2.92-.466-.983.647-2.669 2.791-4.552M22.711 13c0 5.523-4.256 10-9.506 10-5.251 0-9.507-4.477-9.507-10S7.954 3 13.204 3c5.251 0 9.507 4.477 9.507 10z"/></svg><svg fill="none" viewBox="0 0 22 22" id="close" xmlns="http://www.w3.org/2000/svg"><path d="M2 20l9-9m0 0l9-9m-9 9L2 2m9 9l9 9"/></svg><svg fill="none" viewBox="0 0 18 18" id="copy" xmlns="http://www.w3.org/2000/svg"><path d="M3.4 11.4h-.8A1.6 1.6 0 011 9.8V2.6A1.6 1.6 0 012.6 1h7.2a1.6 1.6 0 011.6 1.6v.8M8.2 6.6h7.2A1.6 1.6 0 0117 8.2v7.2a1.6 1.6 0 01-1.6 1.6H8.2a1.6 1.6 0 01-1.6-1.6V8.2a1.6 1.6 0 011.6-1.6z" stroke="#000" stroke-width="2" stroke-linecap="round" stroke-linejoin="round"/></svg><svg viewBox="0 0 30 24" id="eye" xmlns="http://www.w3.org/2000/svg"><path d="M29.875 11.4C26.845 4.365 21.148 0 15 0S3.154 4.365.125 11.4a1.5 1.5 0 000 1.2C3.155 19.635 8.852 24 15 24s11.846-4.365 14.875-11.4a1.5 1.5 0 000-1.2zM15 21c-4.753 0-9.252-3.435-11.846-9C5.748 6.435 10.247 3 15 3s9.252 3.435 11.846 9c-2.594 5.565-7.093 9-11.846 9zm0-15a5.997 5.997 0 00-5.883 7.17 6 6 0 008.178 4.373A5.998 5.998 0 0020.998 12 6.001 6.001 0 0015 6zm0 9a2.998 2.998 0 01-2.941-3.585A3 3 0 1115 15z"/></svg><svg viewBox="0 0 30 32" id="eye2" xmlns="http://www.w3.org/2000/svg"><path d="M13.41 7.123a10.39 10.39 0 011.589-.12c4.767 0 9.25 3.434 11.859 8.996-.4.846-.85 1.667-1.35 2.458a1.5 1.5 0 00-.24.825 1.5 1.5 0 002.79.75 23.644 23.644 0 001.813-3.449 1.5 1.5 0 000-1.184C26.843 8.367 21.146 4.005 15 4.005a11.649 11.649 0 00-2.1.18 1.521 1.521 0 00.51 2.998v-.06zM2.57 1.441A1.505 1.505 0 00.44 3.57L5.09 8.203a21.92 21.92 0 00-4.963 7.196 1.5 1.5 0 000 1.2C3.155 23.628 8.852 27.992 15 27.992a13.884 13.884 0 007.571-2.31l4.858 4.873a1.5 1.5 0 002.128 0 1.5 1.5 0 000-2.128L2.57 1.44zm9.535 13.778l3.673 3.673a2.999 2.999 0 01-3.673-3.673zM15 24.994c-4.768 0-9.25-3.433-11.844-8.995a18.127 18.127 0 014.048-5.683L9.856 13a5.997 5.997 0 008.141 8.141l2.384 2.354a10.855 10.855 0 01-5.382 1.5z"/></svg><svg fill="none" viewBox="0 0 24 11" id="menu" xmlns="http://www.w3.org/2000/svg"><path d="M0 1.5h24M0 5.5h24M0 9.5h24" stroke="#17242B"/></svg><svg viewBox="0 0 24 24" id="ns" xmlns="http://www.w3.org/2000/svg"><path d="M21.747 12a1 1 0 002 0h-2zm-9.873 12a1 1 0 100-2v2zM13.76.454a1 1 0 00-1.6 1.2l1.6-1.2zM15.223 12a1 1 0 102 0h-2zM9.986 23.546a1 1 0 101.6-1.2l-1.6 1.2zm1.6-21.891a1 1 0 00-1.6-1.201l1.6 1.2zM1.685 14.85a1 1 0 100 2v-2zm10.188 2a1 1 0 100-2v2zM1.685 7.15a1 1 0 100 2v-2zm20.377 2a1 1 0 100-2v2zm.553 9.36l-.528.848.528-.849zm-.049 1.21l.114.993-.114-.993zm-2.79.32l-.115-.994-.542.063-.24.49.896.44zm-1.252 2.543l-.898-.441.898.441zm-1.142-.367l-.98.199.98-.199zm-1.365-6.728l-.98.2.98-.2zm.816-.577l-.529.848.529-.848zM23.747 12c0-6.616-5.305-12-11.873-12v2c5.441 0 9.873 4.466 9.873 10h2zM11.874 0C5.304 0 0 5.384 0 12h2C2 6.466 6.431 2 11.873 2V0zM0 12c0 6.616 5.305 12 11.873 12v-2C6.431 22 2 17.534 2 12H0zM12.96 1.054l-.8.6c0-.001 0-.001 0 0l.004.004.02.028c.019.027.05.07.089.129.08.117.197.297.34.535.285.477.671 1.186 1.06 2.095A19.314 19.314 0 0115.222 12h2c0-3.465-.856-6.336-1.711-8.34a19.355 19.355 0 00-1.184-2.337 13.539 13.539 0 00-.551-.847l-.01-.014-.004-.005-.001-.002h-.001l-.8.6zm-2.174 21.892l.8-.6h.001c0 .001 0 .001 0 0l-.004-.004-.02-.028c-.019-.027-.05-.07-.089-.129-.08-.117-.197-.297-.34-.535a17.364 17.364 0 01-1.06-2.095A19.314 19.314 0 018.525 12h-2c0 3.465.856 6.336 1.711 8.34a19.36 19.36 0 001.184 2.337 13.509 13.509 0 00.551.847l.01.014.004.005.001.002c.001 0 .001.001.801-.6zM8.524 12c0-3.135.775-5.737 1.55-7.555a17.36 17.36 0 011.06-2.095 11.489 11.489 0 01.43-.664l.02-.028.003-.005v.001l-.8-.6-.801-.6v.001l-.002.002-.003.005a3.178 3.178 0 00-.045.061 13.525 13.525 0 00-.517.8A19.362 19.362 0 008.235 3.66 21.313 21.313 0 006.525 12h2zm-6.84 4.85h10.19v-2H1.684v2zm0-7.7h20.378v-2H1.685v2zm20.403 10.208c-.053-.033-.09-.095-.087-.183a.437.437 0 01.102-.25.542.542 0 01.35-.199l.228 1.987c.887-.101 1.294-.844 1.319-1.456a1.806 1.806 0 00-.855-1.597l-1.057 1.698zm.365-.632l-2.79.32.227 1.987 2.791-.32-.228-1.987zm-3.574.872l-1.252 2.544 1.795.883 1.252-2.543-1.795-.884zm-1.252 2.544a.538.538 0 01.303-.26.451.451 0 01.285-.01c.095.03.137.092.148.145l-1.96.398a1.8 1.8 0 001.199 1.36c.29.093.64.117.987-.004.364-.128.659-.392.833-.746l-1.795-.883zm.736-.125l-1.365-6.727-1.96.397 1.365 6.728 1.96-.398zm-1.365-6.727a.45.45 0 01-.204.422.464.464 0 01-.489.047l1.057-1.697c-.523-.326-1.194-.358-1.724.018-.528.373-.72 1.01-.6 1.607l1.96-.397zm-.692.47l5.782 3.598 1.057-1.698-5.783-3.598-1.056 1.698z"/></svg><svg fill="none" viewBox="0 0 32 32" id="search" xmlns="http://www.w3.org/2000/svg"><path d="M30 30l-6.767-6.767m3.656-8.789c0 6.873-5.572 12.445-12.445 12.445C7.572 26.889 2 21.317 2 14.444 2 7.572 7.572 2 14.444 2 21.317 2 26.89 7.572 26.89 14.444z"/></svg><svg fill="none" viewBox="0 0 26 26" id="server" xmlns="http://www.w3.org/2000/svg"><path d="M7 19.01l.01-.011M7 7.01l.01-.011M3 10.4V3.6a.6.6 0 01.6-.6h18.8a.6.6 0 01.6.6v6.8a.6.6 0 01-.6.6H3.6a.6.6 0 01-.6-.6zm0 12v-6.8a.6.6 0 01.6-.6h18.8a.6.6 0 01.6.6v6.8a.6.6 0 01-.6.6H3.6a.6.6 0 01-.6-.6z"/></svg><svg fill="none" viewBox="0 0 26 26" id="whois" xmlns="http://www.w3.org/2000/svg"><path d="M21.778 13V6.123a.657.657 0 00-.195-.466l-3.499-3.464A.67.67 0 0017.613 2H4.667A.663.663 0 004 2.66v20.68c0 .364.298.66.667.66h7.11M8.444 10.8h8.89-8.89zm0-4.4h4.445-4.445zm0 8.8h3.334-3.334zM22.333 22.35L24 24l-1.667-1.65z" fill="#fff"/><path d="M16.222 19.6c0 1.823 1.493 3.3 3.334 3.3a3.34 3.34 0 002.36-.97c.601-.597.973-1.42.973-2.33 0-1.823-1.492-3.3-3.333-3.3-1.841 0-3.334 1.477-3.334 3.3zM17.333 5.74V2.389A.39.39 0 0117.726 2c.104 0 .204.041.278.114l3.659 3.622a.387.387 0 01-.278.664H18a.663.663 0 01-.667-.66z" fill="#fff"/><path d="M21.778 13V6.123a.657.657 0 00-.195-.466l-3.499-3.464A.67.67 0 0017.613 2H4.667A.663.663 0 004 2.66v20.68c0 .364.298.66.667.66h7.11M8.445 10.8h8.89m-8.89-4.4h4.445m-4.445 8.8h3.334m10.555 7.15L24 24m-7.778-4.4c0 1.823 1.493 3.3 3.334 3.3a3.34 3.34 0 002.36-.97c.601-.597.973-1.42.973-2.33 0-1.823-1.492-3.3-3.333-3.3-1.841 0-3.334 1.477-3.334 3.3zm1.111-13.86V2.389A.39.39 0 0117.726 2c.104 0 .204.041.278.114l3.659 3.622a.387.387 0 01-.278.664H18a.663.663 0 01-.667-.66z"/></svg></svg>