<svg width="1920" height="320" viewBox="0 0 1920 320" fill="none" xmlns="http://www.w3.org/2000/svg">
<path d="M2034 89C1853.67 195.333 1366.2 364.8 859 192C351.8 19.2 -43 51.3333 -177 89" stroke="#46BB51" stroke-opacity="0.15" stroke-width="2" stroke-linecap="round" stroke-dasharray="12 12"/>
<path d="M-177 178.106C3.33333 71.7731 490.8 -97.6935 998 75.1065C1505.2 247.906 1900 215.773 2034 178.106" stroke="#46BB51" stroke-opacity="0.15" stroke-width="2" stroke-linecap="round" stroke-dasharray="12 12"/>
<path d="M2048 289.106C1867.67 182.773 1380.2 13.3065 873 186.106C365.8 358.906 -29 326.773 -163 289.106" stroke="#46BB51" stroke-opacity="0.15" stroke-width="2" stroke-linecap="round" stroke-dasharray="12 12"/>
<path d="M1542.7 126.75C1542.65 127.076 1542.69 127.411 1542.82 127.714C1542.95 128.017 1543.17 128.275 1543.44 128.458L1568.88 145.388L1568.88 145.392C1569.17 145.586 1569.52 145.684 1569.87 145.674C1570.23 145.663 1570.57 145.543 1570.85 145.331C1571.13 145.119 1571.34 144.825 1571.45 144.49C1571.56 144.154 1571.56 143.793 1571.46 143.455L1571.45 143.426L1569.14 133.015C1569.08 132.825 1568.97 132.656 1568.82 132.524C1568.67 132.392 1568.48 132.301 1568.29 132.262L1547.2 128.008C1547.13 127.997 1547.07 127.973 1547.01 127.938C1546.96 127.903 1546.91 127.858 1546.87 127.804C1546.83 127.75 1546.8 127.689 1546.79 127.624C1546.77 127.56 1546.77 127.493 1546.78 127.427C1546.79 127.362 1546.82 127.299 1546.85 127.243C1546.89 127.186 1546.93 127.138 1546.99 127.099C1547.04 127.06 1547.1 127.033 1547.17 127.018C1547.23 127.003 1547.3 127 1547.36 127.011L1568.7 129.772C1568.89 129.797 1569.1 129.77 1569.28 129.693C1569.46 129.616 1569.63 129.492 1569.75 129.334L1575.28 120.213C1575.29 120.201 1575.3 120.19 1575.31 120.178C1575.72 119.607 1575.76 118.864 1575.38 118.278C1575.36 118.253 1575.35 118.244 1575.33 118.22C1575.13 117.931 1574.84 117.711 1574.51 117.588C1574.18 117.464 1573.82 117.443 1573.48 117.527L1543.96 125.373C1543.64 125.456 1543.35 125.631 1543.13 125.875C1542.9 126.119 1542.75 126.423 1542.7 126.75Z" fill="#4CBE57"/>
<path d="M394.996 299.181C395.035 299.426 395.002 299.677 394.902 299.903C394.802 300.13 394.638 300.323 394.43 300.458L375.276 313.036L375.274 313.04C375.052 313.184 374.791 313.256 374.526 313.246C374.262 313.236 374.006 313.145 373.796 312.985C373.585 312.824 373.429 312.603 373.349 312.351C373.268 312.098 373.268 311.827 373.347 311.575L373.355 311.553L375.134 303.755C375.183 303.614 375.268 303.487 375.381 303.389C375.494 303.29 375.631 303.223 375.779 303.195L391.616 300.103C391.665 300.096 391.712 300.078 391.754 300.052C391.797 300.026 391.834 299.992 391.863 299.952C391.892 299.911 391.913 299.866 391.925 299.817C391.936 299.769 391.938 299.719 391.93 299.67C391.923 299.621 391.905 299.574 391.879 299.531C391.853 299.489 391.819 299.452 391.779 299.423C391.739 299.393 391.693 299.372 391.645 299.361C391.596 299.349 391.546 299.347 391.497 299.355L375.485 301.325C375.336 301.343 375.185 301.322 375.047 301.264C374.909 301.205 374.789 301.111 374.698 300.992L370.588 294.125C370.581 294.117 370.575 294.108 370.569 294.099C370.268 293.669 370.24 293.112 370.529 292.674C370.542 292.655 370.547 292.648 370.56 292.63C370.714 292.415 370.93 292.251 371.178 292.16C371.427 292.069 371.697 292.055 371.954 292.12L394.057 298.143C394.297 298.207 394.514 298.339 394.68 298.523C394.847 298.707 394.957 298.936 394.996 299.181Z" fill="#4CBE57"/>
</svg>
